# xmcd
#
# Track frame offsets:
#	183
#	11325
#	26655
#	44425
#	64203
#	80363
#	93873
#	104668
#	117033
#	127708
#	138848
#	151373
#	170800
#	183775
#	195545
#	207845
#	225420
#	246785
#	260280
#	273633
#	290690
#	302548
#	319310
#	329875
#
# Disc length: 4534 seconds
#
# Revision: 3
# Processed by: cddbd v1.5.2PL0 Copyright (c) Steve Scherf et al.
# Submitted via: audiograbber 1.83.01
#
DISCID=4f11b418
DTITLE=This Is Soul - Volume II
DYEAR=1992
DGENRE=Soul
TTITLE0=Sam and Dave - You Don't Know What You Mean To Me
TTITLE1=Rufus Thomas - Do The Funky Chicken
TTITLE2=Brook Benton - Rainy Night In Georgia
TTITLE3=Gladys Knight - Georgia On My Mind
TTITLE4=James Brown - I Got The Feeling
TTITLE5=Ben E King - Stand By Me
TTITLE6=Ben E King - I Who Have Nothing
TTITLE7=The Kingsmen - Louie, Louie
TTITLE8=The Impressions - I Need Your Love
TTITLE9=Ramsey Lewis - Dancing In The Street
TTITLE10=Gladys Knight - Love Me Again
TTITLE11=James Brown - Sex Machine
TTITLE12=Sam and Dave - You Got Me Hummin'
TTITLE13=Wilson Pickett - If You Need Me
TTITLE14=Mary Wells - My Guy
TTITLE15=Gladys Knight - So Sad The Song
TTITLE16=James Brown - Try Me
TTITLE17=Ramsey Lewis - Up Tight
TTITLE18=Ben E King - Spanish Harlem
TTITLE19=The Moments - Love On A Two Way Street
TTITLE20=The Drifters - Sweets For My Sweet
TTITLE21=Percy Sledge - Behind Closed Doors
TTITLE22=James Brown - I Feel Good
TTITLE23=Brook Benton - Fools Rush In
EXTD=
EXTT0=
EXTT1=
EXTT2=
EXTT3=
EXTT4=
EXTT5=
EXTT6=
EXTT7=
EXTT8=
EXTT9=
EXTT10=
EXTT11=
EXTT12=
EXTT13=
EXTT14=
EXTT15=
EXTT16=
EXTT17=
EXTT18=
EXTT19=
EXTT20=
EXTT21=
EXTT22=
EXTT23=
PLAYORDER=
